<?xml version="1.0" encoding="UTF-8" standalone="no"?><!DOCTYPE svg PUBLIC "-//W3C//DTD SVG 1.1//EN" "http://www.w3.org/Graphics/SVG/1.1/DTD/svg11.dtd"><svg width="100%" height="100%" viewBox="0 0 16 16" version="1.1" xmlns="http://www.w3.org/2000/svg" xmlns:xlink="http://www.w3.org/1999/xlink" xml:space="preserve" xmlns:serif="http://www.serif.com/" style="fill-rule:evenodd;clip-rule:evenodd;stroke-linejoin:round;stroke-miterlimit:2;"><rect id="ball" x="0" y="0" width="15.36" height="15.36" style="fill:none;"/><clipPath id="_clip1"><rect x="0" y="0" width="15.36" height="15.36"/></clipPath><g clip-path="url(#_clip1)"><g><path d="M10.52,10.56l4.84,-0l0,4.8l-15.36,-0l0,-4.8l4.84,0c0.229,1.361 1.414,2.4 2.84,2.4c1.426,0 2.611,-1.039 2.84,-2.4Z"/><path d="M10.56,-4.08l0,9.12c0,1.59 -1.29,2.88 -2.88,2.88c-1.59,0 -2.88,-1.29 -2.88,-2.88l0,-9.12c0,-1.59 1.29,-2.88 2.88,-2.88c1.59,0 2.88,1.29 2.88,2.88Z"/></g></g></svg>