<?xml version="1.0" encoding="UTF-8" standalone="no"?><!DOCTYPE svg PUBLIC "-//W3C//DTD SVG 1.1//EN" "http://www.w3.org/Graphics/SVG/1.1/DTD/svg11.dtd"><svg width="100%" height="100%" viewBox="0 0 16 16" version="1.1" xmlns="http://www.w3.org/2000/svg" xmlns:xlink="http://www.w3.org/1999/xlink" xml:space="preserve" xmlns:serif="http://www.serif.com/" style="fill-rule:evenodd;clip-rule:evenodd;stroke-linejoin:round;stroke-miterlimit:2;"><rect id="bullnose" x="0" y="0" width="15.36" height="15.36" style="fill:none;"/><clipPath id="_clip1"><rect id="bullnose1" serif:id="bullnose" x="0" y="0" width="15.36" height="15.36"/></clipPath><g clip-path="url(#_clip1)"><g><path d="M10.56,10.56l4.8,-0l-0,4.8l-15.36,-0l0,-4.8l4.8,0l0,0.96c0,0.795 0.645,1.44 1.44,1.44l2.88,-0c0.795,-0 1.44,-0.645 1.44,-1.44l-0,-0.96Z"/><path d="M10.56,-6l-0,12.48c-0,0.795 -0.645,1.44 -1.44,1.44l-2.88,0c-0.795,0 -1.44,-0.645 -1.44,-1.44l-0,-12.48c-0,-0.795 0.645,-1.44 1.44,-1.44l2.88,0c0.795,0 1.44,0.645 1.44,1.44Z"/></g></g></svg>